<svg aria-hidden="true" style="position: absolute; width: 0; height: 0; overflow: hidden;"
  version="1.1" xmlns="http://www.w3.org/2000/svg" xmlns:xlink="http://www.w3.org/1999/xlink">
  <defs>
    <symbol id="down-arrow-line" viewBox="0 0 24 16">
      <path
        d="M13.178 14.178c-0.313 0.312-0.736 0.488-1.178 0.488s-0.866-0.176-1.178-0.488l-9.428-9.428c-0.159-0.154-0.286-0.338-0.373-0.541s-0.133-0.422-0.135-0.643c-0.002-0.221 0.040-0.441 0.124-0.646s0.208-0.391 0.364-0.547c0.156-0.156 0.343-0.28 0.547-0.364s0.424-0.126 0.646-0.124c0.221 0.002 0.44 0.048 0.643 0.135s0.387 0.214 0.541 0.373l8.25 8.25 8.25-8.25c0.314-0.304 0.735-0.472 1.172-0.468s0.855 0.179 1.164 0.488c0.309 0.309 0.484 0.727 0.488 1.164s-0.164 0.858-0.468 1.172l-9.428 9.428z"></path>
    </symbol>
    <symbol id="checkmark" viewBox="0 0 16 16">
      <path
        d="M13.329 3.624c0.208 0.182 0.229 0.498 0.047 0.706l-7 8c-0.091 0.104-0.221 0.166-0.36 0.171s-0.272-0.048-0.37-0.146l-3-3c-0.195-0.195-0.195-0.512 0-0.707s0.512-0.195 0.707 0l2.622 2.622 6.648-7.598c0.182-0.208 0.498-0.229 0.706-0.047z"></path>
    </symbol>
    <symbol id="languages-icon" viewBox="0 0 16 16">
      <path
        d="M8.58 10.047l-1.693-1.673 0.020-0.020c1.129-1.255 1.973-2.74 2.473-4.353h1.953v-1.333h-4.667v-1.333h-1.333v1.333h-4.667v1.333h7.447c-0.447 1.28-1.153 2.5-2.113 3.567-0.62-0.687-1.133-1.44-1.54-2.233h-1.333c0.487 1.087 1.153 2.113 1.987 3.040l-3.393 3.347 0.947 0.947 3.333-3.333 2.073 2.073 0.507-1.36zM12.333 6.667h-1.333l-3 8h1.333l0.747-2h3.167l0.753 2h1.333l-3-8zM10.587 11.333l1.080-2.887 1.080 2.887h-2.16z"></path>
    </symbol>
    <symbol id="country-flag-united-states" viewBox="0 0 16 16">
      <path fill="#b22334" style="fill: var(--color1, #b22334)"
        d="M15.753 3.111c-0.308-0.529-0.875-0.889-1.531-0.889h-6.222v0.889h7.753zM0 11.111h16v0.889h-16v-0.889zM8 7.556h8v0.889h-8v-0.889zM8 5.778h8v0.889h-8v-0.889zM0 9.333h16v0.889h-16v-0.889zM1.778 13.778h12.444c0.656 0 1.223-0.36 1.531-0.889h-15.507c0.308 0.529 0.875 0.889 1.531 0.889zM8 4h8v0.889h-8v-0.889z"></path>
      <path fill="#eee" style="fill: var(--color2, #eee)"
        d="M0.030 12.302c0.008 0.041 0.016 0.083 0.026 0.123 0.012 0.045 0.026 0.088 0.041 0.132 0.040 0.115 0.088 0.226 0.148 0.33l0.001 0.002 15.508-0.002c0.060-0.105 0.109-0.215 0.148-0.329 0.029-0.083 0.052-0.169 0.068-0.256 0.018-0.098 0.031-0.198 0.031-0.302h-16c0 0.104 0.012 0.204 0.030 0.302zM0 10.222h16v0.889h-16v-0.889zM0 8.444v0.889h16v-0.889h-16zM8 6.667h8v0.889h-8v-0.889zM8 4.889h8v0.889h-8v-0.889zM0.057 3.575c0.011-0.045 0.027-0.088 0.041-0.132-0.015 0.043-0.029 0.087-0.041 0.132zM8 4h8c0-0.104-0.012-0.204-0.031-0.302-0.016-0.087-0.038-0.173-0.068-0.256-0.039-0.115-0.088-0.225-0.148-0.331h-7.753v0.889z"></path>
      <path fill="#3c3b6e" style="fill: var(--color3, #3c3b6e)"
        d="M8 2.222h-6.222c-0.472 0-0.924 0.187-1.257 0.521s-0.521 0.786-0.521 1.257v4.444h8v-6.222z"></path>
      <path fill="#fff" style="fill: var(--color4, #fff)"
        d="M0.889 3.434l0.275 0.2-0.105 0.322 0.274-0.199 0.275 0.199-0.105-0.322 0.275-0.2h-0.34l-0.105-0.323-0.104 0.323h-0.34zM1.778 4.323l0.275 0.2-0.105 0.322 0.274-0.199 0.275 0.199-0.105-0.322 0.275-0.2h-0.34l-0.105-0.323-0.104 0.323h-0.34zM3.556 4.323l0.275 0.2-0.105 0.322 0.274-0.199 0.275 0.199-0.105-0.322 0.275-0.2h-0.34l-0.105-0.323-0.104 0.323h-0.34zM5.334 4.323l0.275 0.2-0.105 0.322 0.274-0.199 0.275 0.199-0.105-0.322 0.275-0.2h-0.34l-0.105-0.323-0.104 0.323h-0.34zM1.778 6.1l0.275 0.2-0.105 0.322 0.274-0.199 0.275 0.199-0.105-0.322 0.275-0.2h-0.34l-0.105-0.323-0.104 0.323h-0.34zM3.556 6.1l0.275 0.2-0.105 0.322 0.274-0.199 0.275 0.199-0.105-0.322 0.275-0.2h-0.34l-0.105-0.323-0.104 0.323h-0.34zM5.334 6.1l0.275 0.2-0.105 0.322 0.274-0.199 0.275 0.199-0.105-0.322 0.275-0.2h-0.34l-0.105-0.323-0.104 0.323h-0.34zM2.667 3.434l0.275 0.2-0.105 0.322 0.274-0.199 0.275 0.199-0.105-0.322 0.275-0.2h-0.34l-0.105-0.323-0.104 0.323h-0.34zM4.445 3.434l0.275 0.2-0.105 0.322 0.274-0.199 0.275 0.199-0.105-0.322 0.275-0.2h-0.34l-0.105-0.323-0.104 0.323h-0.34zM6.223 3.434l0.275 0.2-0.105 0.322 0.274-0.199 0.275 0.199-0.105-0.322 0.275-0.2h-0.34l-0.105-0.323-0.104 0.323h-0.34zM0.889 5.212l0.275 0.2-0.105 0.322 0.274-0.199 0.275 0.199-0.105-0.322 0.275-0.2h-0.34l-0.105-0.323-0.104 0.323h-0.34zM2.837 5.733l0.274-0.199 0.275 0.199-0.105-0.322 0.275-0.2h-0.34l-0.105-0.323-0.104 0.323h-0.34l0.275 0.2-0.105 0.322zM4.445 5.212l0.275 0.2-0.105 0.322 0.274-0.199 0.275 0.199-0.105-0.322 0.275-0.2h-0.34l-0.105-0.323-0.104 0.323h-0.34zM6.223 5.212l0.275 0.2-0.105 0.322 0.274-0.199 0.275 0.199-0.105-0.322 0.275-0.2h-0.34l-0.105-0.323-0.104 0.323h-0.34zM0.889 6.989l0.275 0.2-0.105 0.322 0.274-0.199 0.275 0.199-0.105-0.322 0.275-0.2h-0.34l-0.105-0.323-0.104 0.323h-0.34zM2.837 7.511l0.274-0.199 0.275 0.199-0.105-0.322 0.275-0.2h-0.34l-0.105-0.323-0.104 0.323h-0.34l0.275 0.2-0.105 0.322zM4.445 6.989l0.275 0.2-0.105 0.322 0.274-0.199 0.275 0.199-0.105-0.322 0.275-0.2h-0.34l-0.105-0.323-0.104 0.323h-0.34zM6.223 6.989l0.275 0.2-0.105 0.322 0.274-0.199 0.275 0.199-0.105-0.322 0.275-0.2h-0.34l-0.105-0.323-0.104 0.323h-0.34z"></path>
    </symbol>
    <symbol id="country-flag-united-kingdom" viewBox="0 0 16 16">
      <path fill="#00247d" style="fill: var(--color1, #00247d)"
        d="M0 4.026v1.752h2.501l-2.501-1.752zM2.073 13.778h3.705v-2.594l-3.705 2.594zM10.222 11.184v2.594h3.704l-3.704-2.594zM0 10.222v1.752l2.502-1.752h-2.502zM13.928 2.222h-3.705v2.594l3.705-2.594zM16 11.974v-1.752h-2.503l2.503 1.752zM16 5.778v-1.752l-2.502 1.752h2.502zM5.778 2.222h-3.705l3.705 2.594v-2.594z"></path>
      <path fill="#cf1b2b" style="fill: var(--color2, #cf1b2b)"
        d="M11.173 10.222l4.316 3.023c0.211-0.217 0.362-0.485 0.44-0.777l-3.207-2.245h-1.55zM5.778 10.222h-0.952l-4.316 3.022c0.232 0.236 0.528 0.404 0.861 0.482l4.406-3.085v-0.419zM10.222 5.778h0.952l4.316-3.022c-0.236-0.239-0.534-0.406-0.861-0.482l-4.407 3.085v0.419zM4.826 5.778l-4.316-3.022c-0.211 0.217-0.362 0.485-0.44 0.777l3.207 2.245h1.55z"></path>
      <path fill="#eee" style="fill: var(--color3, #eee)"
        d="M16 9.333h-6.667v4.444h0.889v-2.594l3.704 2.594h0.296c0.236 0 0.47-0.047 0.688-0.139s0.415-0.226 0.58-0.394l-4.316-3.023h1.55l3.207 2.245c0.041-0.15 0.070-0.305 0.070-0.468v-0.026l-2.503-1.752h2.503v-0.889zM0 9.333v0.889h2.502l-2.502 1.752v0.026c0 0.485 0.195 0.924 0.51 1.244l4.316-3.022h0.952v0.419l-4.406 3.085c0.131 0.031 0.266 0.052 0.406 0.052h0.295l3.705-2.594v2.594h0.889v-4.444h-6.667zM16 4c0-0.466-0.183-0.913-0.51-1.244l-4.316 3.022h-0.952v-0.419l4.407-3.085c-0.133-0.033-0.27-0.050-0.407-0.051h-0.295l-3.705 2.594v-2.594h-0.889v4.444h6.667v-0.889h-2.502l2.502-1.752v-0.026zM5.778 2.222v2.594l-3.705-2.594h-0.295c-0.236-0-0.47 0.047-0.688 0.139s-0.415 0.226-0.58 0.395l4.316 3.022h-1.55l-3.207-2.245c-0.044 0.152-0.068 0.309-0.070 0.467v0.026l2.501 1.752h-2.501v0.889h6.667v-4.444h-0.889z"></path>
      <path fill="#cf1b2b" style="fill: var(--color2, #cf1b2b)"
        d="M9.333 6.667v-4.444h-2.667v4.444h-6.667v2.667h6.667v4.444h2.667v-4.444h6.667v-2.667h-6.667z"></path>
    </symbol>
    <symbol id="country-flag-germany" viewBox="0 0 16 16">
      <path fill="#ffcd05" style="fill: var(--color8, #ffcd05)"
        d="M0 12c0 0.472 0.187 0.924 0.521 1.257s0.786 0.521 1.257 0.521h12.444c0.472 0 0.924-0.187 1.257-0.521s0.521-0.786 0.521-1.257v-1.778h-16v1.778z"></path>
      <path fill="#ed1f24" style="fill: var(--color9, #ed1f24)" d="M0 6.222h16v4h-16v-4z"></path>
      <path fill="#141414" style="fill: var(--color10, #141414)"
        d="M14.222 2.222h-12.444c-0.472 0-0.924 0.187-1.257 0.521s-0.521 0.786-0.521 1.257v2.222h16v-2.222c0-0.471-0.187-0.924-0.521-1.257s-0.786-0.521-1.257-0.521z"></path>
    </symbol>
    <symbol id="country-flag-czech-republic" viewBox="0 0 16 16">
      <path fill="#d7141a" style="fill: var(--color4, #d7141a)"
        d="M0.615 13.321c0.315 0.295 0.731 0.459 1.163 0.456h12.444c0.982 0 1.778-0.796 1.778-2v-3.778h-8.222l-7.163 5.321z"></path>
      <path fill="#eee" style="fill: var(--color3, #eee)"
        d="M14.222 2.222h-12.444c-0.434-0-0.852 0.159-1.176 0.447l7.176 5.331h8.222v-4c0-0.471-0.187-0.924-0.521-1.257s-0.786-0.521-1.257-0.521z"></path>
      <path fill="#11457e" style="fill: var(--color5, #11457e)"
        d="M0.615 13.321l7.163-5.321-7.176-5.331c-0.189 0.166-0.341 0.371-0.444 0.6s-0.157 0.478-0.157 0.73v7.778c0 0.658 0.239 1.192 0.615 1.544z"></path>
    </symbol>
    <symbol id="country-flag-france" viewBox="0 0 16 16">
      <path fill="#ed2939" style="fill: var(--color1, #ed2939)"
        d="M16 12c0 0.472-0.187 0.924-0.521 1.257s-0.786 0.521-1.257 0.521h-3.556v-11.556h3.556c0.471 0 0.924 0.187 1.257 0.521s0.521 0.786 0.521 1.257v8z"></path>
      <path fill="#002495" style="fill: var(--color2, #002495)"
        d="M1.778 2.222c-0.472 0-0.924 0.187-1.257 0.521s-0.521 0.786-0.521 1.257v8c0 0.472 0.187 0.924 0.521 1.257s0.786 0.521 1.257 0.521h3.556v-11.556h-3.556z"></path>
      <path fill="#eee" style="fill: var(--color3, #eee)"
        d="M5.333 2.222h5.333v11.556h-5.333v-11.556z"></path>
    </symbol>
    <symbol id="country-flag-ukraine" viewBox="0 0 16 16">
      <path fill="#005bbb" style="fill: var(--color6, #005bbb)"
        d="M14.222 2.222h-12.444c-0.472 0-0.924 0.187-1.257 0.521s-0.521 0.786-0.521 1.257v4h16v-4c0-0.471-0.187-0.924-0.521-1.257s-0.786-0.521-1.257-0.521z"></path>
      <path fill="#ffd500" style="fill: var(--color7, #ffd500)"
        d="M16 12c0 0.472-0.187 0.924-0.521 1.257s-0.786 0.521-1.257 0.521h-12.444c-0.472 0-0.924-0.187-1.257-0.521s-0.521-0.786-0.521-1.257v-4h16v4z"></path>
    </symbol>
    <symbol id="country-flag-russia-404" viewBox="0 0 16 16">
      <path fill="#fff" style="fill: var(--color11, #fff)" d="M0 0h16v16h-16v-16z"></path>
      <path fill="#ce2028" style="fill: var(--color12, #ce2028)"
        d="M16 12c0 0.472-0.187 0.924-0.521 1.257s-0.786 0.521-1.257 0.521h-12.444c-0.472 0-0.924-0.187-1.257-0.521s-0.521-0.786-0.521-1.257v-1.778h16v1.778z"></path>
      <path fill="#22408c" style="fill: var(--color13, #22408c)" d="M0 5.778h16v4.444h-16v-4.444z"></path>
      <path fill="#eee" style="fill: var(--color3, #eee)"
        d="M14.222 2.222h-12.444c-0.472 0-0.924 0.187-1.257 0.521s-0.521 0.786-0.521 1.257v1.778h16v-1.778c0-0.471-0.187-0.924-0.521-1.257s-0.786-0.521-1.257-0.521z"></path>
      <path fill="none" stroke="#080808" style="stroke: var(--color14, #080808)"
        stroke-linejoin="round" stroke-linecap="round" stroke-miterlimit="4" stroke-width="1.3333"
        d="M2 4.5v2.667c0 0.177 0.070 0.346 0.195 0.471s0.295 0.195 0.471 0.195h2M4.667 4.5v6.667M11.333 4.5v2.667c0 0.177 0.070 0.346 0.195 0.471s0.295 0.195 0.471 0.195h2M14 4.5v6.667M6.667 5.167v5.333c0 0.177 0.070 0.346 0.195 0.471s0.295 0.195 0.471 0.195h1.333c0.177 0 0.346-0.070 0.471-0.195s0.195-0.295 0.195-0.471v-5.333c0-0.177-0.070-0.346-0.195-0.471s-0.295-0.195-0.471-0.195h-1.333c-0.177 0-0.346 0.070-0.471 0.195s-0.195 0.295-0.195 0.471z"></path>
    </symbol>
    <symbol id="trash-icon-lid" viewBox="0 0 43 16">
      <path
        d="M32 6.222v4.444h8c0.707 0 1.386 0.281 1.886 0.781s0.781 1.178 0.781 1.886c0 0.707-0.281 1.386-0.781 1.886s-1.178 0.781-1.886 0.781h-37.333c-0.707 0-1.386-0.281-1.886-0.781s-0.781-1.178-0.781-1.886c0-0.707 0.281-1.386 0.781-1.886s1.178-0.781 1.886-0.781h8v-4.444c0-3.435 2.788-6.222 6.222-6.222h8.889c3.435 0 6.222 2.788 6.222 6.222zM16 6.222v4.444h10.667v-4.444c0-0.236-0.094-0.462-0.26-0.629s-0.393-0.26-0.629-0.26h-8.889c-0.236 0-0.462 0.094-0.629 0.26s-0.26 0.393-0.26 0.629z"></path>
    </symbol>
    <symbol id="trash-icon-body" viewBox="0 0 17 16">
      <path
        d="M2.52 1.979l1.112 11.116c0.010 0.104 0.059 0.2 0.137 0.27s0.178 0.109 0.283 0.109h8.741c0.104 0 0.205-0.039 0.283-0.109s0.126-0.166 0.137-0.27l1.112-11.116c0.042-0.326 0.209-0.623 0.467-0.828s0.585-0.301 0.912-0.268c0.327 0.033 0.629 0.192 0.841 0.443s0.317 0.576 0.294 0.904l-1.112 11.116c-0.072 0.727-0.412 1.402-0.954 1.893s-1.247 0.762-1.978 0.761h-8.741c-0.731-0-1.435-0.272-1.977-0.762s-0.882-1.164-0.955-1.891l-1.112-11.116c-0.021-0.167-0.009-0.337 0.037-0.499s0.123-0.314 0.228-0.446c0.105-0.132 0.235-0.241 0.383-0.322s0.311-0.131 0.478-0.148c0.168-0.017 0.337 0 0.498 0.050s0.311 0.131 0.44 0.239c0.129 0.108 0.235 0.241 0.312 0.391s0.123 0.314 0.136 0.482z"></path>
    </symbol>
  </defs>
</svg>